<svg xmlns="http://www.w3.org/2000/svg" xmlns:xlink="http://www.w3.org/1999/xlink" width="500" zoomAndPan="magnify" viewBox="0 0 375 374.999991" height="500" preserveAspectRatio="xMidYMid meet" version="1.0"><defs><g/></defs><path fill="#1ba553" d="M 188.007812 0.339844 C 291.921875 0.691406 374.972656 85.140625 373.617188 188.996094 C 373.554688 194.214844 373.273438 199.421875 372.773438 204.613281 C 372.269531 209.808594 371.550781 214.972656 370.613281 220.105469 C 369.675781 225.238281 368.523438 230.324219 367.15625 235.359375 C 365.789062 240.394531 364.210938 245.363281 362.425781 250.269531 C 360.636719 255.171875 358.648438 259.988281 356.453125 264.726562 C 354.257812 269.460938 351.867188 274.09375 349.28125 278.628906 C 346.695312 283.160156 343.925781 287.578125 340.964844 291.875 C 338.007812 296.175781 334.871094 300.339844 331.5625 304.375 C 331.039062 305.011719 330.570312 305.683594 330.152344 306.390625 C 329.730469 307.101562 329.367188 307.835938 329.058594 308.597656 C 328.746094 309.359375 328.496094 310.136719 328.304688 310.9375 C 328.109375 311.738281 327.976562 312.546875 327.90625 313.367188 C 327.835938 314.183594 327.824219 315.003906 327.875 315.824219 C 327.925781 316.644531 328.039062 317.457031 328.210938 318.261719 C 328.382812 319.066406 328.617188 319.851562 328.90625 320.621094 C 329.195312 321.390625 329.542969 322.132812 329.945312 322.851562 L 345.988281 351.589844 C 350.4375 359.558594 343.1875 368.980469 334.34375 366.726562 L 279.996094 352.898438 C 278.101562 352.417969 276.179688 352.277344 274.234375 352.476562 C 272.289062 352.675781 270.4375 353.203125 268.679688 354.058594 C 256.664062 359.894531 244.160156 364.378906 231.175781 367.511719 C 218.1875 370.644531 205.015625 372.355469 191.65625 372.640625 C 87.179688 375.003906 1.425781 291.5625 1.097656 187.109375 C 0.773438 83.800781 84.640625 -0.0078125 188.007812 0.339844 Z M 187.363281 349.75 C 190.039062 349.75 192.707031 349.683594 195.378906 349.550781 C 198.046875 349.421875 200.710938 349.226562 203.371094 348.964844 C 206.03125 348.703125 208.683594 348.375 211.328125 347.980469 C 213.972656 347.589844 216.605469 347.132812 219.226562 346.613281 C 221.847656 346.089844 224.453125 345.507812 227.046875 344.859375 C 229.640625 344.207031 232.214844 343.496094 234.773438 342.71875 C 237.332031 341.945312 239.867188 341.109375 242.382812 340.207031 C 244.902344 339.308594 247.394531 338.347656 249.863281 337.324219 C 252.332031 336.300781 254.773438 335.21875 257.191406 334.078125 C 259.605469 332.933594 261.992188 331.734375 264.351562 330.476562 C 266.707031 329.214844 269.03125 327.898438 271.324219 326.527344 C 273.617188 325.152344 275.875 323.722656 278.097656 322.238281 C 280.320312 320.757812 282.503906 319.21875 284.652344 317.625 C 286.796875 316.035156 288.90625 314.390625 290.972656 312.699219 C 293.039062 311.003906 295.058594 309.257812 297.039062 307.464844 C 299.019531 305.671875 300.957031 303.828125 302.847656 301.941406 C 304.734375 300.050781 306.578125 298.117188 308.375 296.136719 C 310.167969 294.15625 311.914062 292.136719 313.609375 290.070312 C 315.304688 288.003906 316.949219 285.898438 318.542969 283.753906 C 320.132812 281.609375 321.671875 279.425781 323.15625 277.203125 C 324.640625 274.984375 326.070312 272.726562 327.445312 270.433594 C 328.820312 268.144531 330.136719 265.820312 331.394531 263.464844 C 332.65625 261.109375 333.859375 258.722656 335 256.308594 C 336.144531 253.890625 337.226562 251.449219 338.25 248.984375 C 339.273438 246.515625 340.234375 244.023438 341.132812 241.507812 C 342.035156 238.992188 342.871094 236.457031 343.648438 233.898438 C 344.425781 231.34375 345.136719 228.769531 345.785156 226.179688 C 346.4375 223.585938 347.019531 220.980469 347.542969 218.359375 C 348.0625 215.742188 348.519531 213.109375 348.914062 210.464844 C 349.304688 207.824219 349.632812 205.171875 349.894531 202.515625 C 350.15625 199.855469 350.351562 197.191406 350.484375 194.523438 C 350.613281 191.855469 350.679688 189.1875 350.679688 186.515625 C 350.679688 96.363281 277.558594 23.28125 187.363281 23.28125 C 97.519531 23.28125 24.617188 95.796875 24.050781 185.464844 C 23.484375 275.4375 97.347656 349.75 187.363281 349.75 Z M 187.363281 349.75 " fill-opacity="1" fill-rule="nonzero"/><path fill="#ffffff" d="M 24.050781 186.515625 C 24.050781 189.1875 24.113281 191.855469 24.246094 194.523438 C 24.378906 197.191406 24.574219 199.855469 24.835938 202.515625 C 25.097656 205.171875 25.425781 207.824219 25.816406 210.464844 C 26.210938 213.109375 26.667969 215.738281 27.1875 218.359375 C 27.707031 220.980469 28.292969 223.585938 28.945312 226.175781 C 29.59375 228.769531 30.304688 231.34375 31.082031 233.898438 C 31.859375 236.457031 32.695312 238.992188 33.597656 241.507812 C 34.496094 244.023438 35.457031 246.511719 36.480469 248.980469 C 37.503906 251.449219 38.585938 253.890625 39.730469 256.304688 C 40.871094 258.722656 42.074219 261.105469 43.332031 263.460938 C 44.59375 265.820312 45.910156 268.140625 47.285156 270.433594 C 48.660156 272.726562 50.089844 274.980469 51.574219 277.203125 C 53.058594 279.425781 54.597656 281.609375 56.1875 283.753906 C 57.78125 285.898438 59.425781 288.003906 61.121094 290.070312 C 62.816406 292.132812 64.5625 294.15625 66.355469 296.136719 C 68.152344 298.117188 69.992188 300.050781 71.882812 301.9375 C 73.773438 303.828125 75.707031 305.667969 77.6875 307.464844 C 79.667969 309.257812 81.691406 311 83.757812 312.695312 C 85.824219 314.390625 87.929688 316.035156 90.078125 317.625 C 92.226562 319.21875 94.410156 320.753906 96.632812 322.238281 C 98.855469 323.722656 101.113281 325.152344 103.402344 326.523438 C 105.695312 327.898438 108.019531 329.214844 110.378906 330.472656 C 112.734375 331.734375 115.121094 332.933594 117.539062 334.078125 C 119.953125 335.21875 122.398438 336.300781 124.867188 337.324219 C 127.335938 338.34375 129.828125 339.308594 132.34375 340.207031 C 134.863281 341.105469 137.398438 341.945312 139.957031 342.71875 C 142.515625 343.496094 145.089844 344.207031 147.683594 344.855469 C 150.273438 345.503906 152.882812 346.089844 155.503906 346.613281 C 158.125 347.132812 160.757812 347.589844 163.402344 347.980469 C 166.046875 348.375 168.699219 348.699219 171.355469 348.960938 C 174.015625 349.222656 176.683594 349.421875 179.351562 349.550781 C 182.019531 349.683594 184.691406 349.75 187.363281 349.75 C 190.039062 349.75 192.707031 349.683594 195.378906 349.550781 C 198.046875 349.421875 200.710938 349.222656 203.371094 348.960938 C 206.03125 348.699219 208.683594 348.375 211.328125 347.980469 C 213.972656 347.589844 216.605469 347.132812 219.226562 346.613281 C 221.847656 346.089844 224.453125 345.503906 227.046875 344.855469 C 229.640625 344.207031 232.214844 343.496094 234.773438 342.71875 C 237.332031 341.945312 239.867188 341.105469 242.382812 340.207031 C 244.902344 339.308594 247.394531 338.34375 249.863281 337.324219 C 252.332031 336.300781 254.773438 335.21875 257.191406 334.078125 C 259.609375 332.933594 261.996094 331.734375 264.351562 330.472656 C 266.707031 329.214844 269.035156 327.898438 271.324219 326.523438 C 273.617188 325.152344 275.875 323.722656 278.097656 322.238281 C 280.320312 320.753906 282.503906 319.21875 284.652344 317.625 C 286.796875 316.035156 288.90625 314.390625 290.972656 312.695312 C 293.039062 311 295.0625 309.257812 297.039062 307.464844 C 299.019531 305.667969 300.957031 303.828125 302.847656 301.9375 C 304.738281 300.050781 306.578125 298.117188 308.375 296.136719 C 310.167969 294.15625 311.914062 292.132812 313.609375 290.070312 C 315.304688 288.003906 316.949219 285.898438 318.542969 283.753906 C 320.132812 281.609375 321.671875 279.425781 323.15625 277.203125 C 324.640625 274.980469 326.070312 272.726562 327.445312 270.433594 C 328.820312 268.140625 330.136719 265.820312 331.394531 263.460938 C 332.65625 261.105469 333.859375 258.722656 335 256.304688 C 336.144531 253.890625 337.226562 251.449219 338.25 248.980469 C 339.273438 246.511719 340.234375 244.023438 341.132812 241.507812 C 342.035156 238.992188 342.871094 236.457031 343.648438 233.898438 C 344.425781 231.34375 345.136719 228.769531 345.785156 226.175781 C 346.4375 223.585938 347.019531 220.980469 347.542969 218.359375 C 348.0625 215.738281 348.519531 213.109375 348.914062 210.464844 C 349.304688 207.824219 349.632812 205.171875 349.894531 202.515625 C 350.15625 199.855469 350.351562 197.191406 350.484375 194.523438 C 350.613281 191.855469 350.679688 189.1875 350.679688 186.515625 C 350.679688 183.84375 350.613281 181.171875 350.484375 178.503906 C 350.351562 175.835938 350.15625 173.171875 349.894531 170.515625 C 349.632812 167.855469 349.304688 165.207031 348.914062 162.5625 C 348.519531 159.921875 348.0625 157.289062 347.542969 154.667969 C 347.019531 152.050781 346.4375 149.445312 345.785156 146.851562 C 345.136719 144.261719 344.425781 141.6875 343.648438 139.128906 C 342.871094 136.574219 342.035156 134.039062 341.132812 131.523438 C 340.234375 129.007812 339.273438 126.515625 338.25 124.046875 C 337.226562 121.578125 336.144531 119.136719 335 116.722656 C 333.859375 114.308594 332.65625 111.921875 331.394531 109.566406 C 330.136719 107.210938 328.820312 104.886719 327.445312 102.597656 C 326.070312 100.304688 324.640625 98.046875 323.15625 95.828125 C 321.671875 93.605469 320.132812 91.421875 318.542969 89.277344 C 316.949219 87.132812 315.304688 85.027344 313.609375 82.960938 C 311.914062 80.894531 310.167969 78.875 308.375 76.894531 C 306.578125 74.914062 304.738281 72.980469 302.847656 71.089844 C 300.957031 69.203125 299.019531 67.359375 297.042969 65.566406 C 295.0625 63.773438 293.039062 62.027344 290.972656 60.332031 C 288.90625 58.640625 286.796875 56.996094 284.652344 55.40625 C 282.503906 53.8125 280.320312 52.273438 278.097656 50.789062 C 275.875 49.308594 273.617188 47.878906 271.324219 46.503906 C 269.035156 45.132812 266.707031 43.816406 264.351562 42.554688 C 261.996094 41.296875 259.609375 40.09375 257.191406 38.953125 C 254.773438 37.8125 252.332031 36.730469 249.863281 35.707031 C 247.394531 34.683594 244.902344 33.722656 242.382812 32.824219 C 239.867188 31.921875 237.332031 31.085938 234.773438 30.308594 C 232.214844 29.535156 229.640625 28.820312 227.046875 28.171875 C 224.453125 27.523438 221.847656 26.9375 219.226562 26.417969 C 216.605469 25.894531 213.972656 25.441406 211.328125 25.046875 C 208.683594 24.65625 206.03125 24.328125 203.371094 24.066406 C 200.710938 23.804688 198.046875 23.609375 195.378906 23.476562 C 192.707031 23.347656 190.039062 23.28125 187.363281 23.28125 C 184.691406 23.28125 182.019531 23.347656 179.351562 23.476562 C 176.683594 23.609375 174.015625 23.804688 171.355469 24.066406 C 168.699219 24.328125 166.046875 24.65625 163.402344 25.046875 C 160.757812 25.441406 158.125 25.894531 155.503906 26.417969 C 152.882812 26.9375 150.273438 27.523438 147.683594 28.171875 C 145.089844 28.820312 142.515625 29.535156 139.957031 30.308594 C 137.398438 31.085938 134.863281 31.921875 132.34375 32.824219 C 129.828125 33.722656 127.335938 34.683594 124.867188 35.707031 C 122.398438 36.730469 119.953125 37.8125 117.539062 38.953125 C 115.121094 40.09375 112.734375 41.296875 110.378906 42.554688 C 108.019531 43.816406 105.695312 45.132812 103.402344 46.503906 C 101.113281 47.878906 98.855469 49.308594 96.632812 50.789062 C 94.410156 52.273438 92.226562 53.8125 90.078125 55.40625 C 87.929688 56.996094 85.824219 58.640625 83.757812 60.332031 C 81.691406 62.027344 79.667969 63.773438 77.6875 65.566406 C 75.707031 67.359375 73.773438 69.203125 71.882812 71.089844 C 69.992188 72.980469 68.152344 74.914062 66.355469 76.894531 C 64.5625 78.875 62.816406 80.894531 61.121094 82.960938 C 59.425781 85.027344 57.78125 87.132812 56.1875 89.277344 C 54.597656 91.421875 53.058594 93.605469 51.574219 95.828125 C 50.089844 98.046875 48.660156 100.304688 47.285156 102.597656 C 45.910156 104.886719 44.59375 107.210938 43.332031 109.566406 C 42.074219 111.921875 40.871094 114.308594 39.730469 116.722656 C 38.585938 119.136719 37.503906 121.578125 36.480469 124.046875 C 35.457031 126.515625 34.496094 129.007812 33.597656 131.523438 C 32.695312 134.039062 31.859375 136.574219 31.082031 139.128906 C 30.304688 141.6875 29.59375 144.261719 28.945312 146.851562 C 28.292969 149.445312 27.707031 152.050781 27.1875 154.667969 C 26.664062 157.289062 26.210938 159.921875 25.816406 162.5625 C 25.425781 165.207031 25.097656 167.855469 24.835938 170.515625 C 24.574219 173.171875 24.378906 175.835938 24.246094 178.503906 C 24.113281 181.171875 24.050781 183.84375 24.050781 186.515625 Z M 24.050781 186.515625 " fill-opacity="1" fill-rule="nonzero"/><path fill="#1ba553" d="M 216.554688 107.15625 L 216.476562 107.304688 L 206.738281 126.613281 C 206.214844 127.652344 205.777344 128.726562 205.425781 129.835938 C 205.074219 130.945312 204.816406 132.074219 204.648438 133.226562 C 204.480469 134.375 204.40625 135.53125 204.425781 136.695312 C 204.441406 137.859375 204.554688 139.011719 204.761719 140.15625 C 204.964844 141.300781 205.261719 142.421875 205.644531 143.519531 C 206.03125 144.617188 206.503906 145.675781 207.0625 146.695312 C 207.617188 147.71875 208.253906 148.6875 208.964844 149.605469 C 209.679688 150.527344 210.460938 151.382812 211.3125 152.171875 C 212.160156 152.960938 212.941406 153.808594 213.652344 154.722656 C 214.363281 155.632812 215 156.59375 215.554688 157.609375 C 216.113281 158.621094 216.582031 159.671875 216.972656 160.761719 C 217.359375 161.851562 217.65625 162.964844 217.863281 164.101562 C 218.074219 165.242188 218.1875 166.386719 218.214844 167.542969 C 218.238281 168.699219 218.167969 169.847656 218.007812 170.992188 C 217.847656 172.140625 217.59375 173.261719 217.253906 174.367188 C 216.910156 175.472656 216.484375 176.542969 215.96875 177.578125 C 210.121094 189.316406 199.992188 205.492188 184.53125 217.164062 C 183.671875 217.816406 182.765625 218.402344 181.816406 218.921875 C 180.867188 219.441406 179.882812 219.886719 178.867188 220.257812 C 177.851562 220.628906 176.816406 220.921875 175.753906 221.136719 C 174.695312 221.355469 173.625 221.492188 172.546875 221.546875 C 171.464844 221.605469 170.386719 221.578125 169.308594 221.476562 C 168.234375 221.371094 167.171875 221.1875 166.121094 220.921875 C 165.074219 220.660156 164.050781 220.320312 163.050781 219.902344 C 162.050781 219.484375 161.089844 218.996094 160.167969 218.4375 L 153.894531 214.621094 C 152.488281 213.765625 151 213.078125 149.4375 212.5625 C 147.875 212.046875 146.273438 211.710938 144.632812 211.5625 C 142.992188 211.410156 141.355469 211.445312 139.726562 211.667969 C 138.09375 211.890625 136.507812 212.292969 134.96875 212.878906 L 110.035156 222.355469 C 109.371094 222.605469 108.722656 222.890625 108.089844 223.203125 C 107.457031 223.519531 106.839844 223.867188 106.238281 224.242188 C 105.636719 224.617188 105.058594 225.023438 104.496094 225.453125 C 103.9375 225.886719 103.398438 226.347656 102.882812 226.832031 C 102.367188 227.320312 101.875 227.828125 101.410156 228.363281 C 100.945312 228.894531 100.507812 229.453125 100.097656 230.027344 C 99.6875 230.605469 99.304688 231.203125 98.953125 231.816406 C 98.601562 232.429688 98.277344 233.058594 97.988281 233.707031 C 97.699219 234.351562 97.441406 235.011719 97.214844 235.683594 C 96.988281 236.355469 96.796875 237.035156 96.640625 237.722656 C 96.480469 238.414062 96.355469 239.109375 96.265625 239.8125 C 96.175781 240.515625 96.121094 241.222656 96.101562 241.929688 C 96.078125 242.636719 96.09375 243.34375 96.140625 244.050781 C 96.191406 244.757812 96.273438 245.457031 96.390625 246.15625 C 96.507812 246.855469 96.660156 247.546875 96.847656 248.230469 C 97.03125 248.914062 97.25 249.585938 97.503906 250.246094 C 97.792969 251.007812 98.125 251.75 98.5 252.476562 L 105.410156 265.859375 C 105.96875 266.945312 106.613281 267.972656 107.347656 268.945312 C 108.082031 269.917969 108.890625 270.824219 109.777344 271.660156 C 110.664062 272.496094 111.613281 273.253906 112.625 273.929688 C 113.640625 274.605469 114.703125 275.191406 115.816406 275.6875 C 116.929688 276.183594 118.078125 276.585938 119.257812 276.886719 C 120.4375 277.191406 121.636719 277.394531 122.851562 277.492188 C 124.066406 277.59375 125.28125 277.59375 126.496094 277.488281 C 127.710938 277.382812 128.90625 277.179688 130.085938 276.871094 C 169.246094 266.746094 262.574219 231.546875 270.09375 125.105469 C 270.167969 124.054688 270.167969 123.007812 270.089844 121.957031 C 270.007812 120.90625 269.855469 119.867188 269.625 118.839844 C 269.390625 117.8125 269.089844 116.804688 268.710938 115.824219 C 268.332031 114.839844 267.886719 113.890625 267.367188 112.972656 C 266.851562 112.054688 266.269531 111.175781 265.625 110.34375 C 264.980469 109.511719 264.28125 108.730469 263.519531 108 C 262.761719 107.269531 261.953125 106.597656 261.097656 105.984375 C 260.238281 105.371094 259.34375 104.824219 258.40625 104.34375 L 245.6875 97.8125 C 245.058594 97.488281 244.414062 97.195312 243.753906 96.9375 C 243.09375 96.675781 242.425781 96.449219 241.746094 96.253906 C 241.0625 96.058594 240.375 95.898438 239.675781 95.769531 C 238.980469 95.644531 238.277344 95.550781 237.570312 95.492188 C 236.867188 95.433594 236.15625 95.410156 235.449219 95.421875 C 234.742188 95.433594 234.035156 95.480469 233.332031 95.558594 C 232.625 95.640625 231.929688 95.753906 231.234375 95.90625 C 230.542969 96.054688 229.859375 96.238281 229.183594 96.453125 C 228.511719 96.667969 227.847656 96.917969 227.199219 97.199219 C 226.546875 97.480469 225.914062 97.792969 225.292969 98.136719 C 224.671875 98.480469 224.070312 98.855469 223.488281 99.257812 C 222.90625 99.660156 222.34375 100.089844 221.804688 100.550781 C 221.261719 101.007812 220.746094 101.492188 220.253906 102 C 219.761719 102.507812 219.292969 103.039062 218.851562 103.59375 C 218.414062 104.148438 218 104.722656 217.617188 105.320312 C 217.230469 105.914062 216.878906 106.527344 216.554688 107.15625 Z M 216.554688 107.15625 " fill-opacity="1" fill-rule="nonzero"/><g fill="#1ba553" fill-opacity="1"><g transform="translate(53.120615, 70.76077)"><g><path d="M 5 0 L 1.71875 0 L 1.71875 -12.015625 L 5 -12.015625 Z M 1.546875 -13.328125 L 1.546875 -13.625 C 2.785156 -15.050781 3.628906 -16.128906 4.078125 -16.859375 L 7.75 -16.859375 L 7.75 -16.625 C 7.375 -16.257812 6.738281 -15.707031 5.84375 -14.96875 C 4.945312 -14.238281 4.242188 -13.691406 3.734375 -13.328125 Z M 1.546875 -13.328125 "/></g></g></g><g fill="#1ba553" fill-opacity="1"><g transform="translate(59.833295, 70.76077)"><g><path d="M 6.78125 -2.390625 C 7.351562 -2.390625 8.039062 -2.515625 8.84375 -2.765625 L 8.84375 -0.328125 C 8.019531 0.0351562 7.015625 0.21875 5.828125 0.21875 C 4.523438 0.21875 3.570312 -0.109375 2.96875 -0.765625 C 2.375 -1.429688 2.078125 -2.429688 2.078125 -3.765625 L 2.078125 -9.546875 L 0.5 -9.546875 L 0.5 -10.9375 L 2.3125 -12.03125 L 3.25 -14.5625 L 5.34375 -14.5625 L 5.34375 -12.015625 L 8.71875 -12.015625 L 8.71875 -9.546875 L 5.34375 -9.546875 L 5.34375 -3.765625 C 5.34375 -3.296875 5.472656 -2.945312 5.734375 -2.71875 C 6.003906 -2.5 6.351562 -2.390625 6.78125 -2.390625 Z M 6.78125 -2.390625 "/></g></g></g></svg>